<svg xmlns="http://www.w3.org/2000/svg" width="480" height="80" viewBox="0 0 480 80" fill="none">
  <rect width="480" height="80" fill="white"/>
  <g fill="#111111">
    <path d="M28 56V24h8.2l8.8 17 8.8-17H62v32h-7.4V37.2L46.8 56h-3.6L35.4 37.2V56H28z"/>
    <path d="M82 56.6c-7.6 0-13.4-5.6-13.4-13.4 0-7.8 5.8-13.6 13.6-13.6 5.1 0 9.5 2.4 11.6 6.4l-6 3.2c-1.1-2-3.1-3.2-5.6-3.2-3.7 0-6.2 2.7-6.2 7.2s2.5 7.2 6.2 7.2c2.7 0 4.7-1.3 5.8-3.4l6 3c-2.1 4.2-6.5 6.6-11.8 6.6z"/>
    <path d="M118.2 56.6c-7.6 0-13.6-5.8-13.6-13.6s6-13.6 13.6-13.6 13.6 5.8 13.6 13.6-6 13.6-13.6 13.6zm0-7.2c3.7 0 6.2-2.7 6.2-6.4s-2.5-6.4-6.2-6.4-6.2 2.7-6.2 6.4 2.5 6.4 6.2 6.4z"/>
    <path d="M140 56V30.2h7.4V34c1.5-2.6 4.4-4.6 8.4-4.6 6.4 0 10.2 4.3 10.2 10.9V56h-7.4V42.8c0-3.5-2-5.7-5.1-5.7-3.4 0-6.1 2.4-6.1 7.3V56H140z"/>
    <path d="M191.6 56.6c-7.3 0-12.8-5.2-12.8-12.5 0-7.4 5.5-12.7 12.8-12.7 5.6 0 9.9 2.7 11.7 7.1l-6.4 2.5c-0.9-2.2-2.8-3.5-5.3-3.5-3.6 0-6 2.6-6 6.6s2.4 6.6 6 6.6c2.6 0 4.6-1.3 5.5-3.6l6.2 2.6c-2 4.5-6.2 7-11.7 7z"/>
    <path d="M208.6 56V30.2h7.4V34c1.5-2.6 4.4-4.6 8.4-4.6 6.4 0 10.2 4.3 10.2 10.9V56h-7.4V42.8c0-3.5-2-5.7-5.1-5.7-3.4 0-6.1 2.4-6.1 7.3V56h-7.4z"/>
    <path d="M271.2 56.6c-7.6 0-13.6-5.8-13.6-13.6s6-13.6 13.6-13.6c4.2 0 7.8 1.5 10.3 4.3l-4.8 4.8c-1.3-1.6-3.2-2.5-5.5-2.5-3.9 0-6.6 2.7-6.6 7s2.7 7 6.6 7c2.4 0 4.2-0.9 5.5-2.5l4.8 4.8c-2.5 2.8-6.1 4.3-10.3 4.3z"/>
    <path d="M290 56V18h7.4v14.5c1.8-2.2 4.6-3.5 8.2-3.5 6.9 0 11.4 4.9 11.4 12.5S312.5 54 305.6 54c-3.6 0-6.5-1.4-8.3-3.7V56H290zm14.5-6.6c3.9 0 6.6-2.7 6.6-6.6s-2.7-6.6-6.6-6.6-6.6 2.7-6.6 6.6 2.7 6.6 6.6 6.6z"/>
    <path d="M321.6 56V18h7.4v38H321.6z"/>
  </g>
</svg>
